<?xml version="1.0" encoding="UTF-8" standalone="no"?>
<!DOCTYPE svg PUBLIC "-//W3C//DTD SVG 1.1//EN"
 "http://www.w3.org/Graphics/SVG/1.1/DTD/svg11.dtd">
<!-- Generated by graphviz version 2.43.0 (0)
 -->
<!-- Title: Tree Pages: 1 -->
<svg width="797pt" height="790pt"
 viewBox="0.00 0.00 797.00 790.00" xmlns="http://www.w3.org/2000/svg" xmlns:xlink="http://www.w3.org/1999/xlink">
<g id="graph0" class="graph" transform="scale(1 1) rotate(0) translate(4 786)">
<title>Tree</title>
<polygon fill="white" stroke="transparent" points="-4,4 -4,-786 793,-786 793,4 -4,4"/>
<!-- 0 -->
<g id="node1" class="node">
<title>0</title>
<path fill="#fdfffd" stroke="black" d="M294.5,-782C294.5,-782 166.5,-782 166.5,-782 160.5,-782 154.5,-776 154.5,-770 154.5,-770 154.5,-711 154.5,-711 154.5,-705 160.5,-699 166.5,-699 166.5,-699 294.5,-699 294.5,-699 300.5,-699 306.5,-705 306.5,-711 306.5,-711 306.5,-770 306.5,-770 306.5,-776 300.5,-782 294.5,-782"/>
<text text-anchor="start" x="162.5" y="-766.8" font-family="Helvetica,sans-Serif" font-size="14.00">PetalLengthCm ≤ 2.45</text>
<text text-anchor="start" x="195" y="-751.8" font-family="Helvetica,sans-Serif" font-size="14.00">gini = 0.667</text>
<text text-anchor="start" x="185.5" y="-736.8" font-family="Helvetica,sans-Serif" font-size="14.00">samples = 120</text>
<text text-anchor="start" x="172.5" y="-721.8" font-family="Helvetica,sans-Serif" font-size="14.00">value = [40, 41, 39]</text>
<text text-anchor="start" x="167" y="-706.8" font-family="Helvetica,sans-Serif" font-size="14.00">class = Iris&#45;versicolor</text>
</g>
<!-- 1 -->
<g id="node2" class="node">
<title>1</title>
<path fill="#e58139" stroke="black" d="M203,-655.5C203,-655.5 102,-655.5 102,-655.5 96,-655.5 90,-649.5 90,-643.5 90,-643.5 90,-599.5 90,-599.5 90,-593.5 96,-587.5 102,-587.5 102,-587.5 203,-587.5 203,-587.5 209,-587.5 215,-593.5 215,-599.5 215,-599.5 215,-643.5 215,-643.5 215,-649.5 209,-655.5 203,-655.5"/>
<text text-anchor="start" x="124.5" y="-640.3" font-family="Helvetica,sans-Serif" font-size="14.00">gini = 0.0</text>
<text text-anchor="start" x="111.5" y="-625.3" font-family="Helvetica,sans-Serif" font-size="14.00">samples = 40</text>
<text text-anchor="start" x="102" y="-610.3" font-family="Helvetica,sans-Serif" font-size="14.00">value = [40, 0, 0]</text>
<text text-anchor="start" x="98" y="-595.3" font-family="Helvetica,sans-Serif" font-size="14.00">class = Iris&#45;setosa</text>
</g>
<!-- 0&#45;&gt;1 -->
<g id="edge1" class="edge">
<title>0&#45;&gt;1</title>
<path fill="none" stroke="black" d="M203.44,-698.91C195.93,-687.65 187.78,-675.42 180.24,-664.11"/>
<polygon fill="black" stroke="black" points="183.07,-662.05 174.61,-655.67 177.25,-665.93 183.07,-662.05"/>
<text text-anchor="middle" x="169.71" y="-676.48" font-family="Helvetica,sans-Serif" font-size="14.00">True</text>
</g>
<!-- 2 -->
<g id="node3" class="node">
<title>2</title>
<path fill="#f5fef9" stroke="black" d="M373.5,-663C373.5,-663 245.5,-663 245.5,-663 239.5,-663 233.5,-657 233.5,-651 233.5,-651 233.5,-592 233.5,-592 233.5,-586 239.5,-580 245.5,-580 245.5,-580 373.5,-580 373.5,-580 379.5,-580 385.5,-586 385.5,-592 385.5,-592 385.5,-651 385.5,-651 385.5,-657 379.5,-663 373.5,-663"/>
<text text-anchor="start" x="241.5" y="-647.8" font-family="Helvetica,sans-Serif" font-size="14.00">PetalLengthCm ≤ 4.75</text>
<text text-anchor="start" x="281.5" y="-632.8" font-family="Helvetica,sans-Serif" font-size="14.00">gini = 0.5</text>
<text text-anchor="start" x="268.5" y="-617.8" font-family="Helvetica,sans-Serif" font-size="14.00">samples = 80</text>
<text text-anchor="start" x="255" y="-602.8" font-family="Helvetica,sans-Serif" font-size="14.00">value = [0, 41, 39]</text>
<text text-anchor="start" x="246" y="-587.8" font-family="Helvetica,sans-Serif" font-size="14.00">class = Iris&#45;versicolor</text>
</g>
<!-- 0&#45;&gt;2 -->
<g id="edge2" class="edge">
<title>0&#45;&gt;2</title>
<path fill="none" stroke="black" d="M257.91,-698.91C263.91,-690.01 270.33,-680.51 276.53,-671.33"/>
<polygon fill="black" stroke="black" points="279.44,-673.27 282.14,-663.02 273.64,-669.35 279.44,-673.27"/>
<text text-anchor="middle" x="286.9" y="-683.86" font-family="Helvetica,sans-Serif" font-size="14.00">False</text>
</g>
<!-- 3 -->
<g id="node4" class="node">
<title>3</title>
<path fill="#3ee684" stroke="black" d="M288.5,-544C288.5,-544 166.5,-544 166.5,-544 160.5,-544 154.5,-538 154.5,-532 154.5,-532 154.5,-473 154.5,-473 154.5,-467 160.5,-461 166.5,-461 166.5,-461 288.5,-461 288.5,-461 294.5,-461 300.5,-467 300.5,-473 300.5,-473 300.5,-532 300.5,-532 300.5,-538 294.5,-544 288.5,-544"/>
<text text-anchor="start" x="162.5" y="-528.8" font-family="Helvetica,sans-Serif" font-size="14.00">PetalWidthCm ≤ 1.65</text>
<text text-anchor="start" x="192" y="-513.8" font-family="Helvetica,sans-Serif" font-size="14.00">gini = 0.053</text>
<text text-anchor="start" x="186.5" y="-498.8" font-family="Helvetica,sans-Serif" font-size="14.00">samples = 37</text>
<text text-anchor="start" x="177" y="-483.8" font-family="Helvetica,sans-Serif" font-size="14.00">value = [0, 36, 1]</text>
<text text-anchor="start" x="164" y="-468.8" font-family="Helvetica,sans-Serif" font-size="14.00">class = Iris&#45;versicolor</text>
</g>
<!-- 2&#45;&gt;3 -->
<g id="edge3" class="edge">
<title>2&#45;&gt;3</title>
<path fill="none" stroke="black" d="M281.05,-579.91C274.82,-571.01 268.16,-561.51 261.72,-552.33"/>
<polygon fill="black" stroke="black" points="264.5,-550.2 255.9,-544.02 258.77,-554.22 264.5,-550.2"/>
</g>
<!-- 6 -->
<g id="node7" class="node">
<title>6</title>
<path fill="#9253e8" stroke="black" d="M452.5,-544C452.5,-544 330.5,-544 330.5,-544 324.5,-544 318.5,-538 318.5,-532 318.5,-532 318.5,-473 318.5,-473 318.5,-467 324.5,-461 330.5,-461 330.5,-461 452.5,-461 452.5,-461 458.5,-461 464.5,-467 464.5,-473 464.5,-473 464.5,-532 464.5,-532 464.5,-538 458.5,-544 452.5,-544"/>
<text text-anchor="start" x="326.5" y="-528.8" font-family="Helvetica,sans-Serif" font-size="14.00">PetalWidthCm ≤ 1.75</text>
<text text-anchor="start" x="356" y="-513.8" font-family="Helvetica,sans-Serif" font-size="14.00">gini = 0.206</text>
<text text-anchor="start" x="350.5" y="-498.8" font-family="Helvetica,sans-Serif" font-size="14.00">samples = 43</text>
<text text-anchor="start" x="341" y="-483.8" font-family="Helvetica,sans-Serif" font-size="14.00">value = [0, 5, 38]</text>
<text text-anchor="start" x="332" y="-468.8" font-family="Helvetica,sans-Serif" font-size="14.00">class = Iris&#45;virginica</text>
</g>
<!-- 2&#45;&gt;6 -->
<g id="edge6" class="edge">
<title>2&#45;&gt;6</title>
<path fill="none" stroke="black" d="M337.95,-579.91C344.18,-571.01 350.84,-561.51 357.28,-552.33"/>
<polygon fill="black" stroke="black" points="360.23,-554.22 363.1,-544.02 354.5,-550.2 360.23,-554.22"/>
</g>
<!-- 4 -->
<g id="node5" class="node">
<title>4</title>
<path fill="#39e581" stroke="black" d="M131,-417.5C131,-417.5 12,-417.5 12,-417.5 6,-417.5 0,-411.5 0,-405.5 0,-405.5 0,-361.5 0,-361.5 0,-355.5 6,-349.5 12,-349.5 12,-349.5 131,-349.5 131,-349.5 137,-349.5 143,-355.5 143,-361.5 143,-361.5 143,-405.5 143,-405.5 143,-411.5 137,-417.5 131,-417.5"/>
<text text-anchor="start" x="43.5" y="-402.3" font-family="Helvetica,sans-Serif" font-size="14.00">gini = 0.0</text>
<text text-anchor="start" x="30.5" y="-387.3" font-family="Helvetica,sans-Serif" font-size="14.00">samples = 36</text>
<text text-anchor="start" x="21" y="-372.3" font-family="Helvetica,sans-Serif" font-size="14.00">value = [0, 36, 0]</text>
<text text-anchor="start" x="8" y="-357.3" font-family="Helvetica,sans-Serif" font-size="14.00">class = Iris&#45;versicolor</text>
</g>
<!-- 3&#45;&gt;4 -->
<g id="edge4" class="edge">
<title>3&#45;&gt;4</title>
<path fill="none" stroke="black" d="M173.38,-460.91C157.34,-448.88 139.81,-435.73 123.89,-423.79"/>
<polygon fill="black" stroke="black" points="125.82,-420.87 115.72,-417.67 121.62,-426.47 125.82,-420.87"/>
</g>
<!-- 5 -->
<g id="node6" class="node">
<title>5</title>
<path fill="#8139e5" stroke="black" d="M284,-417.5C284,-417.5 173,-417.5 173,-417.5 167,-417.5 161,-411.5 161,-405.5 161,-405.5 161,-361.5 161,-361.5 161,-355.5 167,-349.5 173,-349.5 173,-349.5 284,-349.5 284,-349.5 290,-349.5 296,-355.5 296,-361.5 296,-361.5 296,-405.5 296,-405.5 296,-411.5 290,-417.5 284,-417.5"/>
<text text-anchor="start" x="200.5" y="-402.3" font-family="Helvetica,sans-Serif" font-size="14.00">gini = 0.0</text>
<text text-anchor="start" x="191" y="-387.3" font-family="Helvetica,sans-Serif" font-size="14.00">samples = 1</text>
<text text-anchor="start" x="181.5" y="-372.3" font-family="Helvetica,sans-Serif" font-size="14.00">value = [0, 0, 1]</text>
<text text-anchor="start" x="169" y="-357.3" font-family="Helvetica,sans-Serif" font-size="14.00">class = Iris&#45;virginica</text>
</g>
<!-- 3&#45;&gt;5 -->
<g id="edge5" class="edge">
<title>3&#45;&gt;5</title>
<path fill="none" stroke="black" d="M227.85,-460.91C227.94,-450.2 228.04,-438.62 228.13,-427.78"/>
<polygon fill="black" stroke="black" points="231.63,-427.7 228.22,-417.67 224.63,-427.64 231.63,-427.7"/>
</g>
<!-- 7 -->
<g id="node8" class="node">
<title>7</title>
<path fill="#ffffff" stroke="black" d="M455.5,-425C455.5,-425 327.5,-425 327.5,-425 321.5,-425 315.5,-419 315.5,-413 315.5,-413 315.5,-354 315.5,-354 315.5,-348 321.5,-342 327.5,-342 327.5,-342 455.5,-342 455.5,-342 461.5,-342 467.5,-348 467.5,-354 467.5,-354 467.5,-413 467.5,-413 467.5,-419 461.5,-425 455.5,-425"/>
<text text-anchor="start" x="323.5" y="-409.8" font-family="Helvetica,sans-Serif" font-size="14.00">PetalLengthCm ≤ 4.95</text>
<text text-anchor="start" x="363.5" y="-394.8" font-family="Helvetica,sans-Serif" font-size="14.00">gini = 0.5</text>
<text text-anchor="start" x="354" y="-379.8" font-family="Helvetica,sans-Serif" font-size="14.00">samples = 8</text>
<text text-anchor="start" x="344.5" y="-364.8" font-family="Helvetica,sans-Serif" font-size="14.00">value = [0, 4, 4]</text>
<text text-anchor="start" x="328" y="-349.8" font-family="Helvetica,sans-Serif" font-size="14.00">class = Iris&#45;versicolor</text>
</g>
<!-- 6&#45;&gt;7 -->
<g id="edge7" class="edge">
<title>6&#45;&gt;7</title>
<path fill="none" stroke="black" d="M391.5,-460.91C391.5,-452.65 391.5,-443.86 391.5,-435.3"/>
<polygon fill="black" stroke="black" points="395,-435.02 391.5,-425.02 388,-435.02 395,-435.02"/>
</g>
<!-- 14 -->
<g id="node15" class="node">
<title>14</title>
<path fill="#853fe6" stroke="black" d="M625.5,-425C625.5,-425 497.5,-425 497.5,-425 491.5,-425 485.5,-419 485.5,-413 485.5,-413 485.5,-354 485.5,-354 485.5,-348 491.5,-342 497.5,-342 497.5,-342 625.5,-342 625.5,-342 631.5,-342 637.5,-348 637.5,-354 637.5,-354 637.5,-413 637.5,-413 637.5,-419 631.5,-425 625.5,-425"/>
<text text-anchor="start" x="493.5" y="-409.8" font-family="Helvetica,sans-Serif" font-size="14.00">PetalLengthCm ≤ 4.85</text>
<text text-anchor="start" x="526" y="-394.8" font-family="Helvetica,sans-Serif" font-size="14.00">gini = 0.056</text>
<text text-anchor="start" x="520.5" y="-379.8" font-family="Helvetica,sans-Serif" font-size="14.00">samples = 35</text>
<text text-anchor="start" x="511" y="-364.8" font-family="Helvetica,sans-Serif" font-size="14.00">value = [0, 1, 34]</text>
<text text-anchor="start" x="502" y="-349.8" font-family="Helvetica,sans-Serif" font-size="14.00">class = Iris&#45;virginica</text>
</g>
<!-- 6&#45;&gt;14 -->
<g id="edge14" class="edge">
<title>6&#45;&gt;14</title>
<path fill="none" stroke="black" d="M450.48,-460.91C464.59,-451.2 479.76,-440.76 494.21,-430.81"/>
<polygon fill="black" stroke="black" points="496.37,-433.57 502.62,-425.02 492.4,-427.81 496.37,-433.57"/>
</g>
<!-- 8 -->
<g id="node9" class="node">
<title>8</title>
<path fill="#39e581" stroke="black" d="M290,-298.5C290,-298.5 171,-298.5 171,-298.5 165,-298.5 159,-292.5 159,-286.5 159,-286.5 159,-242.5 159,-242.5 159,-236.5 165,-230.5 171,-230.5 171,-230.5 290,-230.5 290,-230.5 296,-230.5 302,-236.5 302,-242.5 302,-242.5 302,-286.5 302,-286.5 302,-292.5 296,-298.5 290,-298.5"/>
<text text-anchor="start" x="202.5" y="-283.3" font-family="Helvetica,sans-Serif" font-size="14.00">gini = 0.0</text>
<text text-anchor="start" x="193" y="-268.3" font-family="Helvetica,sans-Serif" font-size="14.00">samples = 2</text>
<text text-anchor="start" x="183.5" y="-253.3" font-family="Helvetica,sans-Serif" font-size="14.00">value = [0, 2, 0]</text>
<text text-anchor="start" x="167" y="-238.3" font-family="Helvetica,sans-Serif" font-size="14.00">class = Iris&#45;versicolor</text>
</g>
<!-- 7&#45;&gt;8 -->
<g id="edge8" class="edge">
<title>7&#45;&gt;8</title>
<path fill="none" stroke="black" d="M335.64,-341.91C319.09,-329.88 301,-316.73 284.57,-304.79"/>
<polygon fill="black" stroke="black" points="286.29,-301.71 276.14,-298.67 282.17,-307.38 286.29,-301.71"/>
</g>
<!-- 9 -->
<g id="node10" class="node">
<title>9</title>
<path fill="#c09cf2" stroke="black" d="M454.5,-306C454.5,-306 332.5,-306 332.5,-306 326.5,-306 320.5,-300 320.5,-294 320.5,-294 320.5,-235 320.5,-235 320.5,-229 326.5,-223 332.5,-223 332.5,-223 454.5,-223 454.5,-223 460.5,-223 466.5,-229 466.5,-235 466.5,-235 466.5,-294 466.5,-294 466.5,-300 460.5,-306 454.5,-306"/>
<text text-anchor="start" x="328.5" y="-290.8" font-family="Helvetica,sans-Serif" font-size="14.00">PetalWidthCm ≤ 1.55</text>
<text text-anchor="start" x="358" y="-275.8" font-family="Helvetica,sans-Serif" font-size="14.00">gini = 0.444</text>
<text text-anchor="start" x="356" y="-260.8" font-family="Helvetica,sans-Serif" font-size="14.00">samples = 6</text>
<text text-anchor="start" x="346.5" y="-245.8" font-family="Helvetica,sans-Serif" font-size="14.00">value = [0, 2, 4]</text>
<text text-anchor="start" x="334" y="-230.8" font-family="Helvetica,sans-Serif" font-size="14.00">class = Iris&#45;virginica</text>
</g>
<!-- 7&#45;&gt;9 -->
<g id="edge9" class="edge">
<title>7&#45;&gt;9</title>
<path fill="none" stroke="black" d="M392.19,-341.91C392.34,-333.56 392.49,-324.67 392.64,-316.02"/>
<polygon fill="black" stroke="black" points="396.14,-316.08 392.81,-306.02 389.14,-315.96 396.14,-316.08"/>
</g>
<!-- 10 -->
<g id="node11" class="node">
<title>10</title>
<path fill="#8139e5" stroke="black" d="M288,-179.5C288,-179.5 177,-179.5 177,-179.5 171,-179.5 165,-173.5 165,-167.5 165,-167.5 165,-123.5 165,-123.5 165,-117.5 171,-111.5 177,-111.5 177,-111.5 288,-111.5 288,-111.5 294,-111.5 300,-117.5 300,-123.5 300,-123.5 300,-167.5 300,-167.5 300,-173.5 294,-179.5 288,-179.5"/>
<text text-anchor="start" x="204.5" y="-164.3" font-family="Helvetica,sans-Serif" font-size="14.00">gini = 0.0</text>
<text text-anchor="start" x="195" y="-149.3" font-family="Helvetica,sans-Serif" font-size="14.00">samples = 3</text>
<text text-anchor="start" x="185.5" y="-134.3" font-family="Helvetica,sans-Serif" font-size="14.00">value = [0, 0, 3]</text>
<text text-anchor="start" x="173" y="-119.3" font-family="Helvetica,sans-Serif" font-size="14.00">class = Iris&#45;virginica</text>
</g>
<!-- 9&#45;&gt;10 -->
<g id="edge10" class="edge">
<title>9&#45;&gt;10</title>
<path fill="none" stroke="black" d="M337.64,-222.91C321.09,-210.88 303,-197.73 286.57,-185.79"/>
<polygon fill="black" stroke="black" points="288.29,-182.71 278.14,-179.67 284.17,-188.38 288.29,-182.71"/>
</g>
<!-- 11 -->
<g id="node12" class="node">
<title>11</title>
<path fill="#9cf2c0" stroke="black" d="M458.5,-187C458.5,-187 330.5,-187 330.5,-187 324.5,-187 318.5,-181 318.5,-175 318.5,-175 318.5,-116 318.5,-116 318.5,-110 324.5,-104 330.5,-104 330.5,-104 458.5,-104 458.5,-104 464.5,-104 470.5,-110 470.5,-116 470.5,-116 470.5,-175 470.5,-175 470.5,-181 464.5,-187 458.5,-187"/>
<text text-anchor="start" x="326.5" y="-171.8" font-family="Helvetica,sans-Serif" font-size="14.00">PetalLengthCm ≤ 5.45</text>
<text text-anchor="start" x="359" y="-156.8" font-family="Helvetica,sans-Serif" font-size="14.00">gini = 0.444</text>
<text text-anchor="start" x="357" y="-141.8" font-family="Helvetica,sans-Serif" font-size="14.00">samples = 3</text>
<text text-anchor="start" x="347.5" y="-126.8" font-family="Helvetica,sans-Serif" font-size="14.00">value = [0, 2, 1]</text>
<text text-anchor="start" x="331" y="-111.8" font-family="Helvetica,sans-Serif" font-size="14.00">class = Iris&#45;versicolor</text>
</g>
<!-- 9&#45;&gt;11 -->
<g id="edge11" class="edge">
<title>9&#45;&gt;11</title>
<path fill="none" stroke="black" d="M393.85,-222.91C393.92,-214.65 393.99,-205.86 394.07,-197.3"/>
<polygon fill="black" stroke="black" points="397.57,-197.05 394.15,-187.02 390.57,-196.99 397.57,-197.05"/>
</g>
<!-- 12 -->
<g id="node13" class="node">
<title>12</title>
<path fill="#39e581" stroke="black" d="M376,-68C376,-68 257,-68 257,-68 251,-68 245,-62 245,-56 245,-56 245,-12 245,-12 245,-6 251,0 257,0 257,0 376,0 376,0 382,0 388,-6 388,-12 388,-12 388,-56 388,-56 388,-62 382,-68 376,-68"/>
<text text-anchor="start" x="288.5" y="-52.8" font-family="Helvetica,sans-Serif" font-size="14.00">gini = 0.0</text>
<text text-anchor="start" x="279" y="-37.8" font-family="Helvetica,sans-Serif" font-size="14.00">samples = 2</text>
<text text-anchor="start" x="269.5" y="-22.8" font-family="Helvetica,sans-Serif" font-size="14.00">value = [0, 2, 0]</text>
<text text-anchor="start" x="253" y="-7.8" font-family="Helvetica,sans-Serif" font-size="14.00">class = Iris&#45;versicolor</text>
</g>
<!-- 11&#45;&gt;12 -->
<g id="edge12" class="edge">
<title>11&#45;&gt;12</title>
<path fill="none" stroke="black" d="M365.46,-103.73C359.15,-94.88 352.48,-85.51 346.15,-76.63"/>
<polygon fill="black" stroke="black" points="348.87,-74.41 340.22,-68.3 343.17,-78.48 348.87,-74.41"/>
</g>
<!-- 13 -->
<g id="node14" class="node">
<title>13</title>
<path fill="#8139e5" stroke="black" d="M529,-68C529,-68 418,-68 418,-68 412,-68 406,-62 406,-56 406,-56 406,-12 406,-12 406,-6 412,0 418,0 418,0 529,0 529,0 535,0 541,-6 541,-12 541,-12 541,-56 541,-56 541,-62 535,-68 529,-68"/>
<text text-anchor="start" x="445.5" y="-52.8" font-family="Helvetica,sans-Serif" font-size="14.00">gini = 0.0</text>
<text text-anchor="start" x="436" y="-37.8" font-family="Helvetica,sans-Serif" font-size="14.00">samples = 1</text>
<text text-anchor="start" x="426.5" y="-22.8" font-family="Helvetica,sans-Serif" font-size="14.00">value = [0, 0, 1]</text>
<text text-anchor="start" x="414" y="-7.8" font-family="Helvetica,sans-Serif" font-size="14.00">class = Iris&#45;virginica</text>
</g>
<!-- 11&#45;&gt;13 -->
<g id="edge13" class="edge">
<title>11&#45;&gt;13</title>
<path fill="none" stroke="black" d="M423.92,-103.73C430.3,-94.88 437.06,-85.51 443.47,-76.63"/>
<polygon fill="black" stroke="black" points="446.46,-78.46 449.48,-68.3 440.79,-74.36 446.46,-78.46"/>
</g>
<!-- 15 -->
<g id="node16" class="node">
<title>15</title>
<path fill="#c09cf2" stroke="black" d="M620.5,-306C620.5,-306 502.5,-306 502.5,-306 496.5,-306 490.5,-300 490.5,-294 490.5,-294 490.5,-235 490.5,-235 490.5,-229 496.5,-223 502.5,-223 502.5,-223 620.5,-223 620.5,-223 626.5,-223 632.5,-229 632.5,-235 632.5,-235 632.5,-294 632.5,-294 632.5,-300 626.5,-306 620.5,-306"/>
<text text-anchor="start" x="498.5" y="-290.8" font-family="Helvetica,sans-Serif" font-size="14.00">SepalWidthCm ≤ 3.1</text>
<text text-anchor="start" x="526" y="-275.8" font-family="Helvetica,sans-Serif" font-size="14.00">gini = 0.444</text>
<text text-anchor="start" x="524" y="-260.8" font-family="Helvetica,sans-Serif" font-size="14.00">samples = 3</text>
<text text-anchor="start" x="514.5" y="-245.8" font-family="Helvetica,sans-Serif" font-size="14.00">value = [0, 1, 2]</text>
<text text-anchor="start" x="502" y="-230.8" font-family="Helvetica,sans-Serif" font-size="14.00">class = Iris&#45;virginica</text>
</g>
<!-- 14&#45;&gt;15 -->
<g id="edge15" class="edge">
<title>14&#45;&gt;15</title>
<path fill="none" stroke="black" d="M561.5,-341.91C561.5,-333.65 561.5,-324.86 561.5,-316.3"/>
<polygon fill="black" stroke="black" points="565,-316.02 561.5,-306.02 558,-316.02 565,-316.02"/>
</g>
<!-- 18 -->
<g id="node19" class="node">
<title>18</title>
<path fill="#8139e5" stroke="black" d="M774,-298.5C774,-298.5 663,-298.5 663,-298.5 657,-298.5 651,-292.5 651,-286.5 651,-286.5 651,-242.5 651,-242.5 651,-236.5 657,-230.5 663,-230.5 663,-230.5 774,-230.5 774,-230.5 780,-230.5 786,-236.5 786,-242.5 786,-242.5 786,-286.5 786,-286.5 786,-292.5 780,-298.5 774,-298.5"/>
<text text-anchor="start" x="690.5" y="-283.3" font-family="Helvetica,sans-Serif" font-size="14.00">gini = 0.0</text>
<text text-anchor="start" x="677.5" y="-268.3" font-family="Helvetica,sans-Serif" font-size="14.00">samples = 32</text>
<text text-anchor="start" x="668" y="-253.3" font-family="Helvetica,sans-Serif" font-size="14.00">value = [0, 0, 32]</text>
<text text-anchor="start" x="659" y="-238.3" font-family="Helvetica,sans-Serif" font-size="14.00">class = Iris&#45;virginica</text>
</g>
<!-- 14&#45;&gt;18 -->
<g id="edge18" class="edge">
<title>14&#45;&gt;18</title>
<path fill="none" stroke="black" d="M615.97,-341.91C632.11,-329.88 649.75,-316.73 665.78,-304.79"/>
<polygon fill="black" stroke="black" points="668.07,-307.45 673.99,-298.67 663.88,-301.84 668.07,-307.45"/>
</g>
<!-- 16 -->
<g id="node17" class="node">
<title>16</title>
<path fill="#8139e5" stroke="black" d="M616,-179.5C616,-179.5 505,-179.5 505,-179.5 499,-179.5 493,-173.5 493,-167.5 493,-167.5 493,-123.5 493,-123.5 493,-117.5 499,-111.5 505,-111.5 505,-111.5 616,-111.5 616,-111.5 622,-111.5 628,-117.5 628,-123.5 628,-123.5 628,-167.5 628,-167.5 628,-173.5 622,-179.5 616,-179.5"/>
<text text-anchor="start" x="532.5" y="-164.3" font-family="Helvetica,sans-Serif" font-size="14.00">gini = 0.0</text>
<text text-anchor="start" x="523" y="-149.3" font-family="Helvetica,sans-Serif" font-size="14.00">samples = 2</text>
<text text-anchor="start" x="513.5" y="-134.3" font-family="Helvetica,sans-Serif" font-size="14.00">value = [0, 0, 2]</text>
<text text-anchor="start" x="501" y="-119.3" font-family="Helvetica,sans-Serif" font-size="14.00">class = Iris&#45;virginica</text>
</g>
<!-- 15&#45;&gt;16 -->
<g id="edge16" class="edge">
<title>15&#45;&gt;16</title>
<path fill="none" stroke="black" d="M561.15,-222.91C561.06,-212.2 560.96,-200.62 560.87,-189.78"/>
<polygon fill="black" stroke="black" points="564.37,-189.64 560.78,-179.67 557.37,-189.7 564.37,-189.64"/>
</g>
<!-- 17 -->
<g id="node18" class="node">
<title>17</title>
<path fill="#39e581" stroke="black" d="M777,-179.5C777,-179.5 658,-179.5 658,-179.5 652,-179.5 646,-173.5 646,-167.5 646,-167.5 646,-123.5 646,-123.5 646,-117.5 652,-111.5 658,-111.5 658,-111.5 777,-111.5 777,-111.5 783,-111.5 789,-117.5 789,-123.5 789,-123.5 789,-167.5 789,-167.5 789,-173.5 783,-179.5 777,-179.5"/>
<text text-anchor="start" x="689.5" y="-164.3" font-family="Helvetica,sans-Serif" font-size="14.00">gini = 0.0</text>
<text text-anchor="start" x="680" y="-149.3" font-family="Helvetica,sans-Serif" font-size="14.00">samples = 1</text>
<text text-anchor="start" x="670.5" y="-134.3" font-family="Helvetica,sans-Serif" font-size="14.00">value = [0, 1, 0]</text>
<text text-anchor="start" x="654" y="-119.3" font-family="Helvetica,sans-Serif" font-size="14.00">class = Iris&#45;versicolor</text>
</g>
<!-- 15&#45;&gt;17 -->
<g id="edge17" class="edge">
<title>15&#45;&gt;17</title>
<path fill="none" stroke="black" d="M615.62,-222.91C631.66,-210.88 649.19,-197.73 665.11,-185.79"/>
<polygon fill="black" stroke="black" points="667.38,-188.47 673.28,-179.67 663.18,-182.87 667.38,-188.47"/>
</g>
</g>
</svg>